<svg xmlns="http://www.w3.org/2000/svg" viewBox="0 0 512 512">
  <defs>
    <linearGradient id="bg" x1="0%" y1="0%" x2="100%" y2="100%">
      <stop offset="0%" style="stop-color:#dc143c"/>
      <stop offset="50%" style="stop-color:#dc143c"/>
      <stop offset="50%" style="stop-color:#ffffff"/>
      <stop offset="100%" style="stop-color:#ffffff"/>
    </linearGradient>
  </defs>
  <rect width="512" height="512" rx="96" fill="#dc143c"/>
  <rect y="256" width="512" height="256" rx="0" fill="#fff"/>
  <rect x="0" y="448" width="512" height="64" rx="0" fill="#fff"/>
  <rect x="0" y="0" width="64" height="512" rx="96 0 0 96" fill="none"/>
  <!-- Rounded bottom corners -->
  <path d="M0,416 L0,416 Q0,512 96,512 L416,512 Q512,512 512,416 L512,256 L0,256 Z" fill="#fff"/>
  <!-- Rounded top corners (red) -->
  <path d="M96,0 L416,0 Q512,0 512,96 L512,256 L0,256 L0,96 Q0,0 96,0 Z" fill="#dc143c"/>
  <!-- PL text -->
  <text x="256" y="290" font-family="Georgia, serif" font-size="200" font-weight="bold" fill="#1a1a2e" text-anchor="middle" dominant-baseline="central">PL</text>
</svg>
